<svg viewBox="0 0 400 300" xmlns="http://www.w3.org/2000/svg"><path d="m183.92 223.42c-1.14-13.29-.59-19.78-2-24.18-3.27-2.61-15.4-9.62-25.57-15a7.82 7.82 0 0 1 -3.23-10.58c2-3.81 4.58-.38 8.4 1.64 12.1 6.44 29.5 10.05 32.85 14.3 3.78 4.79 2.73 36.48 2.73 36.48z" fill="#ffc9b0"/><path d="m197.07 227.06a.68.68 0 0 1 -.2 0l-13.14-2.64a1 1 0 0 1 -.8-.9c-.47-5.37-.65-9.65-.81-13.09-.21-4.85-.35-8.11-1.09-10.57-3.63-2.77-15.74-9.73-25.18-14.74a8.84 8.84 0 0 1 -3.65-11.93 3.82 3.82 0 0 1 2.38-2.16c1.58-.4 3.1.63 4.86 1.82a26.19 26.19 0 0 0 2.56 1.55c5.44 2.89 12 5.23 17.85 7.3 7.44 2.63 13.31 4.72 15.32 7.26 3.88 4.94 3 33.85 2.94 37.14a1 1 0 0 1 -.38.75 1 1 0 0 1 -.66.21zm-12.21-4.48 11.24 2.27c.36-12.62 0-31.45-2.54-34.65-1.65-2.09-7.85-4.29-14.42-6.62-5.88-2.09-12.55-4.45-18.12-7.41a30.94 30.94 0 0 1 -2.7-1.68c-1.3-.89-2.54-1.72-3.26-1.54-.36.09-.73.48-1.09 1.16a6.84 6.84 0 0 0 2.82 9.23c9.94 5.28 22.28 12.38 25.72 15.12a.92.92 0 0 1 .33.47c.9 2.76 1.06 6.19 1.28 11.39.15 3.26.32 7.28.74 12.26z" fill="#093f68"/><path d="m183.92 223.42v15.73s23.89 4.58 22 1-9.46-5.6-9.46-5.6l.63-8.52z" fill="#68e1fd"/><path d="m202 242.48c-3.35 0-8.94-.57-18.23-2.35a1 1 0 0 1 -.81-1v-15.71a1 1 0 0 1 .37-.78 1 1 0 0 1 .83-.2l13.14 2.64a1 1 0 0 1 .8 1.06l-.57 7.72c2.08.65 7.57 2.65 9.29 5.85a1.57 1.57 0 0 1 -.07 1.74c-.4.55-1.55 1.03-4.75 1.03zm-17-4.16c8.38 1.56 17.77 2.7 19.92 2-1.65-2.46-6.76-4.29-8.66-4.81a1 1 0 0 1 -.74-1l.56-7.64-11.08-2.23z" fill="#093f68"/><path d="m171.27 129.09s12.19 15.57 15.13 15 11.43-6.21 15.88-8.08c7.13-3 18.37-1.56 15.31 1s-2.2.2-2.2.2c-16.57 10.91-28 18-29.44 17.88-7.16-.37-20.58-13.74-20.58-13.74z" fill="#ffc9b0"/><path d="m186 156.08h-.1c-7.46-.39-20.68-13.48-21.24-14a1 1 0 0 1 -.19-1.15l5.9-12.24a1 1 0 0 1 1.69-.18c5.52 7.05 12.51 14.65 14.17 14.65 1.47-.28 5.08-2.31 8.25-4.11a81.47 81.47 0 0 1 7.4-3.9c5.79-2.42 15.46-2.31 17 .2a1.79 1.79 0 0 1 -.64 2.45c-1.4 1.15-2.51 1.79-3.4 1.16l-.11-.09c-25.18 16.51-27.95 17.21-28.73 17.21zm-19.42-15c2.49 2.4 13.48 12.65 19.43 13 .52-.08 4.35-1.59 28.82-17.72a1 1 0 0 1 1.18 0 1.4 1.4 0 0 1 .27.33c.18-.13.4-.3.67-.52-1.4-.88-8.69-1.59-14.32.76-1.87.79-4.57 2.32-7.18 3.8-3.64 2.05-7.07 4-8.9 4.34-1 .19-4.54-.84-15.1-14.13z" fill="#093f68"/><path d="m124.8 224.04h44.14v6.94h-44.14z" fill="#f56132"/><path d="m168.94 232h-44.14a1 1 0 0 1 -1-1v-7a1 1 0 0 1 1-1h44.14a1 1 0 0 1 1 1v7a1 1 0 0 1 -1 1zm-43.14-2h42.14v-5h-42.14z" fill="#093f68"/><path d="m122.65 241.62h-2.24a2.11 2.11 0 0 1 -2.06-2.56l11-50.07h6.55l-11.15 51a2.12 2.12 0 0 1 -2.1 1.63z" fill="#f56132"/><path d="m122.65 242.62h-2.24a3.1 3.1 0 0 1 -2.42-1.16 3.07 3.07 0 0 1 -.61-2.61l11-50.07a1 1 0 0 1 1-.79h6.55a1 1 0 0 1 .77.37 1 1 0 0 1 .2.85l-11.15 51a3.11 3.11 0 0 1 -3.1 2.41zm7.46-52.62-10.78 49.29a1.1 1.1 0 0 0 1.08 1.34h2.24a1.1 1.1 0 0 0 1.08-.87l10.88-49.76z" fill="#093f68"/><path d="m171.62 241.62h2.23a2.11 2.11 0 0 0 2.06-2.56l-10.91-50.06h-6.6l11.15 51a2.12 2.12 0 0 0 2.07 1.62z" fill="#f56132"/><path d="m173.85 242.62h-2.23a3.12 3.12 0 0 1 -3-2.44l-11.15-51a1 1 0 0 1 .2-.85 1 1 0 0 1 .77-.37h6.56a1 1 0 0 1 1 .79l10.95 50.07a3.1 3.1 0 0 1 -3 3.77zm-14.2-52.62 10.88 49.76a1.11 1.11 0 0 0 1.09.87h2.23a1.1 1.1 0 0 0 1.08-1.34l-10.78-49.29z" fill="#093f68"/><rect fill="#f56132" height="7.21" rx="2.21" width="49.64" x="117.79" y="185.38"/><path d="m165.23 193.6h-45.23a3.21 3.21 0 0 1 -3.21-3.21v-2.79a3.22 3.22 0 0 1 3.21-3.22h45.23a3.22 3.22 0 0 1 3.21 3.22v2.79a3.21 3.21 0 0 1 -3.21 3.21zm-45.23-7.22a1.22 1.22 0 0 0 -1.21 1.22v2.79a1.21 1.21 0 0 0 1.21 1.21h45.23a1.21 1.21 0 0 0 1.21-1.21v-2.79a1.22 1.22 0 0 0 -1.21-1.22z" fill="#093f68"/><path d="m179.89 223.42c-1.15-13.29-.59-19.78-2-24.18-3.27-2.61-15.4-9.62-25.57-15a7.82 7.82 0 0 1 7.34-13.81c12.11 6.43 27.33 14.92 30.68 19.17 3.77 4.79 2.73 36.48 2.73 36.48z" fill="#ffc9b0"/><path d="m193 227.06a.65.65 0 0 1 -.2 0l-13.15-2.64a1 1 0 0 1 -.79-.9c-.47-5.37-.66-9.65-.81-13.09-.21-4.85-.35-8.11-1.09-10.57-3.63-2.77-15.75-9.73-25.18-14.74a8.84 8.84 0 0 1 -3.65-11.93 8.84 8.84 0 0 1 11.93-3.65c18.14 9.64 28.28 16 31 19.44 3.88 4.94 3 33.85 2.93 37.14a1 1 0 0 1 -1 1zm-12.22-4.48 11.25 2.27c.36-12.62 0-31.45-2.54-34.65s-12.72-9.54-30.37-18.91a6.82 6.82 0 0 0 -6.4 12.05c9.94 5.28 22.28 12.38 25.72 15.12a.92.92 0 0 1 .33.47c.9 2.76 1.05 6.19 1.28 11.39.18 3.26.36 7.28.77 12.26z" fill="#093f68"/><path d="m189 142.61c-4.5-1.74-19.32-16.45-20.79-17.16l-.7-.33a69.22 69.22 0 0 0 -15.33-4.77c-6.21-1-12.69-.71-16.29 3.52-8.39 9.87-8.78 38.65-8.78 38.65l38.29 7a159.85 159.85 0 0 0 6-22.7c4.49 3.75 10.51 8.08 14.54 8.29z" fill="#fff"/><path d="m165.37 170.49h-.18l-38.29-7a1 1 0 0 1 -.82-1c0-1.19.49-29.26 9-39.28 3.3-3.89 9.09-5.19 17.21-3.86a69.37 69.37 0 0 1 15.58 4.84c.48.21.74.35.74.35.56.27 1.86 1.42 5.41 4.66 5 4.53 12.49 11.38 15.29 12.46a1 1 0 0 1 .61 1.17l-3 12.47a1 1 0 0 1 -1 .76c-3.24-.17-7.89-2.67-13.81-7.44a165.49 165.49 0 0 1 -5.78 21.19 1 1 0 0 1 -.96.68zm-37.27-8.8 36.6 6.66a157.35 157.35 0 0 0 5.72-21.73 1 1 0 0 1 .64-.77 1 1 0 0 1 1 .18c5.52 4.6 10.13 7.39 13.14 7.95l2.62-10.81c-3.48-1.87-10.15-7.94-15.12-12.47-2.21-2-4.5-4.1-4.95-4.36l-.66-.3a67.39 67.39 0 0 0 -15.09-4.7c-7.38-1.21-12.55-.14-15.37 3.18-7.28 8.55-8.38 32.38-8.53 37.17z" fill="#093f68"/><path d="m171.61 145.68h-.2a1 1 0 0 1 -.78-1.18l2-9.53a1 1 0 0 1 2 .4l-2 9.53a1 1 0 0 1 -1.02.78z" fill="#093f68"/><path d="m151.53 138.86a1.26 1.26 0 0 1 -.27 0 1 1 0 0 1 -.7-1.23c1.48-5.37.6-17 .59-17.16a1 1 0 0 1 2-.15c0 .49.92 12.14-.66 17.84a1 1 0 0 1 -.96.7z" fill="#093f68"/><path d="m165.37 144.32a1.1 1.1 0 0 1 -.36-.07 1 1 0 0 1 -.58-1.29 40.27 40.27 0 0 0 2.06-17.7 1 1 0 0 1 .85-1.13 1 1 0 0 1 1.13.86 41.53 41.53 0 0 1 -2.17 18.68 1 1 0 0 1 -.93.65z" fill="#093f68"/><path d="m144.77 57c-5.14-1.07-10.59.72-14.75 3.81-3.23 2.4-6 6-5.65 9.89a18.11 18.11 0 0 0 1.63 5.3 10.6 10.6 0 0 1 1.07 5.41 4.45 4.45 0 0 1 -3.57 3.88 11 11 0 0 0 8.5 1.65 10.58 10.58 0 0 0 6.86-5.11 4.44 4.44 0 0 1 1.71-2.18 4 4 0 0 1 1.29-.29 16.75 16.75 0 0 0 8.66-3.25c7.48-6.11 3.15-17.23-5.75-19.11z" fill="#725858"/><path d="m129.68 88.2a11.92 11.92 0 0 1 -6.68-2.06 1 1 0 0 1 -.41-1.06 1 1 0 0 1 .85-.75 3.48 3.48 0 0 0 2.7-3 9.92 9.92 0 0 0 -1-4.89l-.27-.65a16.26 16.26 0 0 1 -1.46-5c-.29-3.76 1.91-7.68 6.06-10.76 4.75-3.54 10.57-5 15.55-4a13.06 13.06 0 0 1 10 9.55 10.93 10.93 0 0 1 -3.8 11.28 17.4 17.4 0 0 1 -9.22 3.49 3.41 3.41 0 0 0 -1 .2 3 3 0 0 0 -1 1.45l-.19.36a11.5 11.5 0 0 1 -7.51 5.6 11.73 11.73 0 0 1 -2.62.24zm-3.86-2.76a10.1 10.1 0 0 0 6 .52 9.54 9.54 0 0 0 6.2-4.61l.17-.33a4.7 4.7 0 0 1 2-2.28 4.86 4.86 0 0 1 1.53-.37 15.6 15.6 0 0 0 8.21-3 8.88 8.88 0 0 0 3.13-9.26 11 11 0 0 0 -8.49-8.11c-4.43-.92-9.64.43-13.95 3.63-1.69 1.26-5.6 4.66-5.26 9a14.68 14.68 0 0 0 1.32 4.37l.27.66a11.56 11.56 0 0 1 1.13 5.93 6 6 0 0 1 -2.26 3.85z" fill="#093f68"/><path d="m157.66 58.64a15.7 15.7 0 0 0 -11.52 2.09 19.23 19.23 0 0 0 -7.5 9.12 14.75 14.75 0 0 0 -1.18 7 9 9 0 0 0 3.21 6.15 3.22 3.22 0 0 0 2 .83 4.06 4.06 0 0 0 1.44-.39 35.65 35.65 0 0 0 16.55-14.38c2.27-3.79 2.05-9.29-3-10.42z" fill="#ffbc0e"/><path d="m142.63 84.85a4.16 4.16 0 0 1 -2.58-1 10 10 0 0 1 -3.58-6.87 15.71 15.71 0 0 1 1.24-7.47 20.2 20.2 0 0 1 7.91-9.59 16.63 16.63 0 0 1 12.26-2.21 6.18 6.18 0 0 1 4.59 3.63 9.4 9.4 0 0 1 -1 8.29 36.63 36.63 0 0 1 -17 14.79 4.84 4.84 0 0 1 -1.81.47zm11.91-25.55a15.11 15.11 0 0 0 -7.87 2.28 18.17 18.17 0 0 0 -7.1 8.64 13.54 13.54 0 0 0 -1.11 6.51 8 8 0 0 0 2.82 5.51 2.33 2.33 0 0 0 1.37.61 3.08 3.08 0 0 0 1.06-.32 34.5 34.5 0 0 0 16.08-14 7.47 7.47 0 0 0 .84-6.47 4.23 4.23 0 0 0 -3.18-2.47 13.51 13.51 0 0 0 -2.91-.29z" fill="#093f68"/><path d="m165.28 59.63c4.61.15 8.82 1.8 11.4 5.74 3-1.42 6.37.82 8.5 3.31a27.36 27.36 0 0 1 6.45 17.07c.14 8.17-3.49 16.11-8.88 22.25a31.72 31.72 0 0 1 -10.42 8.06 20.77 20.77 0 0 1 -13 1.62c-12.24-2.71-19.7-17.76-21.1-29.17-1.92-16.05 10.92-29.4 27.05-28.88z" fill="#725858"/><path d="m163.29 119.1a18.71 18.71 0 0 1 -4.12-.45c-12.15-2.69-20.34-17.47-21.88-30a26.18 26.18 0 0 1 6.71-21.17 27.6 27.6 0 0 1 21.33-8.85c5.12.17 9.16 2.07 11.74 5.52 3.26-1 6.67 1.28 8.89 3.89a28.11 28.11 0 0 1 6.69 17.7c.14 7.92-3.11 16.06-9.13 22.92a32.51 32.51 0 0 1 -10.78 8.34 22.93 22.93 0 0 1 -9.45 2.1zm1.1-58.48a25.53 25.53 0 0 0 -18.93 8.21 24.15 24.15 0 0 0 -6.18 19.56c1.45 11.87 9.07 25.82 20.32 28.31a19.67 19.67 0 0 0 12.31-1.55 30.69 30.69 0 0 0 10.09-7.81c5.69-6.49 8.76-14.15 8.63-21.57a26.51 26.51 0 0 0 -6.21-16.44c-1.83-2.15-4.84-4.24-7.31-3.06a1 1 0 0 1 -1.26-.35c-2.75-4.18-7.28-5.18-10.6-5.29z" fill="#093f68"/><path d="m157.29 120.16h5.71a.51.51 0 0 1 .51.51v2.87a3.38 3.38 0 0 1 -3.38 3.38 3.38 3.38 0 0 1 -3.38-3.38v-2.87a.51.51 0 0 1 .51-.51z" fill="#ffc9b0" transform="matrix(.9810229 .19389192 -.19389192 .9810229 26.98 -28.7)"/><path d="m160.17 127.91a4.11 4.11 0 0 1 -.86-.08 4.38 4.38 0 0 1 -3.45-5.14l.56-2.82a1.47 1.47 0 0 1 .64-1 1.55 1.55 0 0 1 1.13-.23l5.63 1.12a1.45 1.45 0 0 1 1 .64 1.54 1.54 0 0 1 .23 1.13l-.56 2.81a4.38 4.38 0 0 1 -4.28 3.53zm-1.89-7.17-.46 2.33a2.4 2.4 0 0 0 .36 1.79 2.37 2.37 0 0 0 1.51 1 2.4 2.4 0 0 0 1.79-.36 2.33 2.33 0 0 0 1-1.51l.46-2.34z" fill="#093f68"/><ellipse cx="180.16" cy="108.25" fill="#ffc9b0" rx="5.66" ry="5.06" transform="matrix(.19389192 -.9810229 .9810229 .19389192 39.04 264.01)"/><path d="m180 114.89a5.84 5.84 0 0 1 -1.09-.11 5.74 5.74 0 0 1 -3.91-2.78 7.14 7.14 0 0 1 1.8-9.15 5.75 5.75 0 0 1 4.63-1.12c3.28.65 5.37 4.11 4.66 7.71a7 7 0 0 1 -2.61 4.24 5.86 5.86 0 0 1 -3.48 1.21zm.41-11.27a3.91 3.91 0 0 0 -2.34.81 5.14 5.14 0 0 0 -1.29 6.54 3.69 3.69 0 0 0 5.56 1.1 5 5 0 0 0 1.85-3c.5-2.52-.89-4.92-3.08-5.35a3.39 3.39 0 0 0 -.74-.1z" fill="#093f68"/><path d="m159.22 122.91c-10.89-2.16-18-17.53-15.87-28.26l2.4 1.5 1.41-7.61s27.49-1.84 27-8.54l11 7.68-3.83 19.4c-2.2 10.72-11.21 17.98-22.11 15.83z" fill="#ffc9b0"/><path d="m163.06 124.29a20.77 20.77 0 0 1 -4-.4c-11.45-2.27-18.85-18.35-16.66-29.43a1 1 0 0 1 .58-.73 1 1 0 0 1 .93.07l1.15.72 1.14-6.16a1 1 0 0 1 .92-.82c6-.4 22.16-2.28 25.51-6.17a1.72 1.72 0 0 0 .51-1.29 1 1 0 0 1 .5-1 1 1 0 0 1 1.07.05l11 7.68a1 1 0 0 1 .41 1l-3.83 19.39c-2.11 10.44-9.86 17.09-19.23 17.09zm-3.64-2.37c10 2 18.74-4.35 20.85-15l3.73-18.79-9.2-6.44a4.76 4.76 0 0 1 -.65 1c-4.18 4.85-21.75 6.48-26.12 6.81l-1.27 6.85a1 1 0 0 1 -.58.73 1 1 0 0 1 -.93-.06l-1.12-.7c-1.5 11.83 7 24 15.32 25.62z" fill="#093f68"/><ellipse cx="158.64" cy="100.08" fill="#093f68" rx="1.83" ry="1.83" transform="matrix(.19389192 -.9810229 .9810229 .19389192 29.7 236.31)"/><circle cx="175.94" cy="103.5" fill="#093f68" r="1.83"/><path d="m168.5 107.49a10 10 0 0 1 -3.15-.66 1 1 0 1 1 .72-1.87 8.48 8.48 0 0 0 2.14.51 15.77 15.77 0 0 0 -.72-4 1 1 0 1 1 1.92-.57c.62 2.11 1.19 4.86.41 6a1.37 1.37 0 0 1 -1.08.6z" fill="#093f68"/><path d="m162.88 96.81a2.1 2.1 0 0 1 -.43 0l-8.54-1.84a2 2 0 0 1 .84-3.91l8.55 1.84a2 2 0 0 1 -.42 4z" fill="#093f68"/><path d="m179.15 98.9h-.21l-8.69-.9a2 2 0 0 1 .4-4l8.7.88a2 2 0 0 1 1.78 2.2 2 2 0 0 1 -1.98 1.82z" fill="#093f68"/><path d="m147 96.79s-4.09-4.22-7.48-.49-2.35 11.41 5.91 10.86" fill="#ffc9b0"/><path d="m144.62 108.19c-3.4 0-6-1.41-7.23-3.94a8 8 0 0 1 1.37-8.63 5.18 5.18 0 0 1 3.83-1.86c2.73-.06 5 2.24 5.11 2.34a1 1 0 1 1 -1.43 1.39 6 6 0 0 0 -3.65-1.73 3.23 3.23 0 0 0 -2.38 1.24 6 6 0 0 0 -1.05 6.41c1 2 3.14 3 6.15 2.78a1 1 0 1 1 .13 2z" fill="#093f68"/><path d="m163.26 116.52a6.47 6.47 0 0 1 -.87-.06c-3.12-.46-5.61-3.31-7.4-8.47a1 1 0 0 1 1.89-.66c1.53 4.4 3.47 6.81 5.8 7.15 4.18.61 8.6-5.45 8.64-5.51a1 1 0 0 1 1.4-.23 1 1 0 0 1 .23 1.39c-.2.28-4.65 6.39-9.69 6.39z" fill="#093f68"/><path d="m165.37 169.49 4.27-14.41-2.5-18.35-16.65-5.8-22.11 15.54-1.3 16.06s-6.11 10.56-3 18.11 54.56 22 54.56 22l11.24-19.19z" fill="#68e1fd"/><g fill="#093f68"><path d="m178.68 203.63a.84.84 0 0 1 -.27 0c-5.31-1.49-52-14.79-55.22-22.56-3.09-7.43 2-17.23 2.91-18.8l1.29-15.84a1 1 0 0 1 .42-.74l22.11-15.54a1 1 0 0 1 .9-.13l16.65 5.81a1 1 0 0 1 .66.81l2.5 18.35a1 1 0 0 1 0 .42l-4 13.64 23.86 13.57a1 1 0 0 1 .47.61 1 1 0 0 1 -.1.76l-11.23 19.19a1 1 0 0 1 -.95.45zm-49.34-56.63-1.26 15.59a1 1 0 0 1 -.13.42c-.06.1-5.83 10.23-2.91 17.23 1.18 2.83 16.33 10.8 53.17 21.2l10.33-17.65-23.67-13.45a1 1 0 0 1 -.46-1.15l4.21-14.19-2.39-17.52-15.58-5.48z"/><path d="m207.49 151.08 24.92 15.72v7.16l-28.41-19.87z"/><path d="m232.41 175a1 1 0 0 1 -.57-.18l-28.41-19.87a1 1 0 0 1 -.08-1.58l3.49-3a1 1 0 0 1 1.19-.08l24.91 15.71a1 1 0 0 1 .47.85v7.15a1 1 0 0 1 -.54.89 1 1 0 0 1 -.46.11zm-26.78-21 25.78 18v-4.69l-23.83-15z"/><path d="m241.93 233.83h-12.79v-96.61l12.79-4.16z"/><path d="m241.93 234.83h-12.79a1 1 0 0 1 -1-1v-96.61a1 1 0 0 1 .69-1l12.79-4.16a1 1 0 0 1 1.31 1v100.77a1 1 0 0 1 -1 1zm-11.79-2h10.79v-98.4l-10.79 3.51z"/><rect height="8.21" rx="3.23" width="40.03" x="215.52" y="232.81"/><path d="m252.31 242h-33.56a4.24 4.24 0 0 1 -4.23-4.24v-1.76a4.24 4.24 0 0 1 4.23-4.23h33.56a4.24 4.24 0 0 1 4.24 4.23v1.74a4.24 4.24 0 0 1 -4.24 4.26zm-33.56-8.21a2.23 2.23 0 0 0 -2.23 2.23v1.74a2.24 2.24 0 0 0 2.23 2.24h33.56a2.24 2.24 0 0 0 2.24-2.24v-1.76a2.23 2.23 0 0 0 -2.24-2.23z"/></g><circle cx="235.53" cy="144.24" fill="#68e1fd" r="3.37"/><path d="m235.53 148.62a4.38 4.38 0 1 1 4.38-4.38 4.38 4.38 0 0 1 -4.38 4.38zm0-6.75a2.38 2.38 0 1 0 2.38 2.37 2.38 2.38 0 0 0 -2.38-2.37z" fill="#093f68"/><circle cx="235.53" cy="231.77" fill="#68e1fd" r="3.37"/><path d="m235.53 236.14a4.37 4.37 0 1 1 4.38-4.37 4.37 4.37 0 0 1 -4.38 4.37zm0-6.74a2.37 2.37 0 1 0 2.38 2.37 2.38 2.38 0 0 0 -2.38-2.37z" fill="#093f68"/><path d="m170.21 134.43h113.27v7.54h-113.27z" fill="#f56132" transform="matrix(.88845708 -.45895971 .45895971 .88845708 -38.13 119.55)"/><path d="m178.26 168.55a1 1 0 0 1 -.89-.54l-3.46-6.7a1 1 0 0 1 -.07-.77 1 1 0 0 1 .5-.58l100.66-51.96a1 1 0 0 1 1.34.43l3.47 6.7a1 1 0 0 1 .06.77 1 1 0 0 1 -.49.58l-100.63 52a1.11 1.11 0 0 1 -.49.07zm-2.12-7.27 2.55 4.92 98.85-51.08-2.54-4.92z" fill="#093f68"/><path d="m179.89 223.42v15.73s23.89 4.58 22 1-9.46-5.6-9.46-5.6l.63-8.52z" fill="#68e1fd"/><path d="m197.93 242.48c-3.35 0-8.94-.57-18.23-2.35a1 1 0 0 1 -.81-1v-15.71a1 1 0 0 1 .37-.78 1 1 0 0 1 .83-.2l13.14 2.64a1 1 0 0 1 .8 1.06l-.57 7.72c2.08.65 7.57 2.65 9.29 5.85a1.59 1.59 0 0 1 -.07 1.74c-.36.55-1.51 1.03-4.75 1.03zm-17-4.16c8.38 1.56 17.77 2.7 19.92 2-1.65-2.46-6.76-4.29-8.67-4.81a1 1 0 0 1 -.73-1l.56-7.64-11.08-2.23z" fill="#093f68"/><path d="m188.37 153.83-1.97-4.75 76.8-39.2 2.42 4.04z" fill="#fff"/><path d="m188.37 154.83a1 1 0 0 1 -.35-.06 1 1 0 0 1 -.58-.55l-2-4.76a1 1 0 0 1 .46-1.27l76.85-39.19a1 1 0 0 1 1.31.38l2.42 4a1 1 0 0 1 .1.78 1 1 0 0 1 -.5.62l-77.25 39.91a1 1 0 0 1 -.46.14zm-.69-5.28 1.2 2.9 75.33-38.93-1.39-2.32z" fill="#093f68"/><path d="m194.48 111.59-2.85 1.97 14.32 20.69 2.89-2z" fill="#68e1fd"/><path d="m206 135.25a1 1 0 0 1 -.82-.43l-14.32-20.69a1 1 0 0 1 .25-1.39l2.85-2a1 1 0 0 1 1.39.25l14.36 20.66a1 1 0 0 1 .16.75 1.08 1.08 0 0 1 -.41.65l-2.89 2a1 1 0 0 1 -.57.2zm-13-21.44 13.19 19.05 1.23-.86-13.21-19z" fill="#093f68"/><path d="m165.37 141.68 24.22-13s2.19-4.25 3.62-5.39c1.65-1.33 2.84-2.76 3.36-2.12a5.3 5.3 0 0 1 1 1.74c.11.35.05.94.42 1.13.83.44 3.32-1.51 4-1.93.27-.17.57-.41.55-.73s-.72-.67-.79-1.14a2.76 2.76 0 0 1 2.25-.24 2.12 2.12 0 0 1 1.12 2.86c-.44 1-1.58 1.74-1.88 2.7a4.46 4.46 0 0 0 -.13 1.15 11.15 11.15 0 0 1 -.74 4.06c-1.41 3.3-5.88 4.11-9 5.18 0 0-26.2 20.55-29.57 20.55" fill="#ffc9b0"/><path d="m163.83 157.47a1 1 0 0 1 0-2c2-.11 16.31-10.42 29-20.34a.9.9 0 0 1 .29-.16c.52-.18 1.08-.35 1.66-.53 2.68-.83 5.71-1.76 6.71-4.09a9.75 9.75 0 0 0 .66-3.69 5.34 5.34 0 0 1 .18-1.43 5.22 5.22 0 0 1 1.16-1.79 4.71 4.71 0 0 0 .75-1 1.24 1.24 0 0 0 0-1 .93.93 0 0 0 -.54-.53 1.31 1.31 0 0 0 -.27-.06 1.85 1.85 0 0 1 .12.49 1.81 1.81 0 0 1 -1 1.64l-.42.29c-1.82 1.28-3.43 2.29-4.57 1.68a1.86 1.86 0 0 1 -.87-1.51 1.55 1.55 0 0 0 0-.21 3.54 3.54 0 0 0 -.54-1c-.28.21-.69.57-1 .86s-.79.69-1.23 1c-.92.73-2.54 3.5-3.35 5.07a1 1 0 0 1 -.42.42l-24.22 13a1 1 0 1 1 -1-1.76l24-12.83c.56-1 2.37-4.33 3.74-5.43.42-.33.8-.67 1.15-1 1-.92 1.79-1.58 2.64-1.51a1.39 1.39 0 0 1 1 .51 6.15 6.15 0 0 1 1.18 2.08 2.26 2.26 0 0 1 .09.41 14.07 14.07 0 0 0 2.33-1.42l.34-.23a1.76 1.76 0 0 1 -.54-1 1 1 0 0 1 .48-1 3.71 3.71 0 0 1 3.12-.38 2.89 2.89 0 0 1 1.71 1.63 3.26 3.26 0 0 1 0 2.58 6.29 6.29 0 0 1 -1.07 1.51 3.92 3.92 0 0 0 -.76 1.08 3.09 3.09 0 0 0 -.09.8 12.34 12.34 0 0 1 -.82 4.5c-1.36 3.18-5 4.31-8 5.22l-1.44.46c-6.47 5-26.74 20.67-30.16 20.67z" fill="#093f68"/><path d="m134 137.86c21.12 30.42 35.67 17.22 35.67 17.22-.26-1.61-.9-5-1.22-6.6-.51-2.66-1.08-5.32-1.48-8l-1.57.85s-10.35-7.7-18.16-14.73" fill="#fff"/><path d="m161 158.93a17.18 17.18 0 0 1 -2-.11c-8.46-1-17.18-7.83-25.9-20.39a1 1 0 1 1 1.65-1.14c8.23 11.86 16.68 18.62 24.42 19.53a13.26 13.26 0 0 0 9.34-2.15c-.29-1.68-.81-4.46-1.12-6l-.33-1.68c-.32-1.62-.66-3.28-.93-5l-.34.18a1 1 0 0 1 -1.07-.08c-.1-.08-10.48-7.8-18.23-14.79a1 1 0 0 1 -.08-1.41 1 1 0 0 1 1.42-.07c6.71 6 15.4 12.65 17.58 14.29l1-.55a1 1 0 0 1 1.46.74c.31 2.08.73 4.2 1.14 6.25l.34 1.68c.34 1.76 1 5.08 1.22 6.64a1 1 0 0 1 -.31.9 14.44 14.44 0 0 1 -9.26 3.16z" fill="#093f68"/><path d="m205.95 134.25 4.12 2.75-1.23-4.75z" fill="#68e1fd"/><path d="m210.07 138a1 1 0 0 1 -.56-.17l-4.11-2.75a1 1 0 0 1 -.45-.82 1 1 0 0 1 .43-.83l2.89-2a1 1 0 0 1 1.53.57l1.24 4.74a1 1 0 0 1 -.39 1.07 1 1 0 0 1 -.58.19zm-2.34-3.77.71.48-.21-.82z" fill="#093f68"/><path d="m269.35 228.89s-6.51-13.28-5.6-22.25a16.59 16.59 0 0 1 7.76 9.36c3.85 10.69 3 12.9 3 12.9z" fill="#70cc40"/><path d="m274.47 229.9h-5.12a1 1 0 0 1 -.89-.56c-.28-.55-6.63-13.64-5.71-22.79a1 1 0 0 1 .5-.76 1 1 0 0 1 .91-.05c.23.1 5.65 2.63 8.29 9.93 3.79 10.52 3.12 13.18 2.95 13.61a1 1 0 0 1 -.93.62zm-4.48-2h3.58c0-1.21-.42-4.41-3-11.56a16.64 16.64 0 0 0 -5.91-8c-.03 7.45 4.22 17.14 5.34 19.55z" fill="#093f68"/><path d="m272.45 228.25s-4.89-18.93 2.14-31.61c0 0 4.05 4.64 5 15.84a28.32 28.32 0 0 1 -2.91 15.52z" fill="#70cc40"/><path d="m272.45 229.25a1 1 0 0 1 -1-.75c-.2-.79-4.91-19.47 2.23-32.34a1 1 0 0 1 1.63-.17c.18.2 4.28 5 5.26 16.41a29 29 0 0 1 -3.06 16.07 1 1 0 0 1 -.79.49l-4.23.29zm2.26-30.64c-4.93 10.63-2.25 25-1.48 28.58l2.83-.18a28.2 28.2 0 0 0 2.55-14.44c-.61-7.47-2.7-11.93-3.9-13.96z" fill="#093f68"/><path d="m274.56 227.65s1.52-12.63 11.73-20.88c0 0 3 9.41-5.43 22z" fill="#70cc40"/><path d="m280.86 229.77a.52.52 0 0 1 -.17 0l-6.3-1.11a1 1 0 0 1 -.82-1.1c.06-.54 1.68-13.14 12.09-21.55a1 1 0 0 1 1.58.48c.13.4 3.06 10-5.55 22.86a1 1 0 0 1 -.83.42zm-5.15-2.93 4.68.83c5.75-8.86 5.66-16 5.26-19-7.19 6.52-9.39 15.33-9.94 18.17z" fill="#093f68"/><path d="m281.56 241.85h-12.86l-1.9-15.65h16.66z" fill="#68e1fd"/><path d="m281.56 242.85h-12.86a1 1 0 0 1 -1-.88l-1.9-15.65a1 1 0 0 1 .24-.78 1 1 0 0 1 .75-.34h16.66a1 1 0 0 1 .75.34 1 1 0 0 1 .24.78l-1.89 15.68a1 1 0 0 1 -.99.85zm-12-2h11.08l1.66-13.65h-14.4z" fill="#093f68"/><path d="m290.33 242.85h-180.66a1 1 0 1 1 0-2h180.66a1 1 0 0 1 0 2z" fill="#093f68"/></svg>