<?xml version="1.0" encoding="utf-8"?>
<!-- Uploaded to: SVG Repo, www.svgrepo.com, Generator: SVG Repo Mixer Tools -->
<svg width="800px" height="800px" viewBox="0 -62.5 1149 1149" class="icon"  version="1.1" xmlns="http://www.w3.org/2000/svg"><path d="M88.413908 447.562927A38.462439 38.462439 0 0 1 49.951469 409.100488v-65.93561A318.439024 318.439024 0 0 1 368.140738 24.97561h412.597073A318.439024 318.439024 0 0 1 1098.927079 343.164878v65.93561a38.462439 38.462439 0 0 1-38.462439 38.462439z" fill="#FDCA89" /><path d="M780.737811 49.95122A293.463415 293.463415 0 0 1 1073.951469 343.164878v65.93561a13.486829 13.486829 0 0 1-13.486829 13.486829H88.413908a13.486829 13.486829 0 0 1-13.486829-13.486829v-65.93561A293.463415 293.463415 0 0 1 368.140738 49.95122h412.597073m0-49.95122H368.140738A343.164878 343.164878 0 0 0 24.97586 343.164878v65.93561a63.438049 63.438049 0 0 0 63.438048 63.438049h972.050732A63.438049 63.438049 0 0 0 1123.902689 409.100488v-65.93561A343.164878 343.164878 0 0 0 780.737811 0z" fill="#5C2D51" /><path d="M153.100738 999.02439A103.149268 103.149268 0 0 1 49.951469 895.625366v-69.681951a33.217561 33.217561 0 0 1 33.217561-33.217561h982.540488A33.217561 33.217561 0 0 1 1098.927079 825.943415v69.681951A103.149268 103.149268 0 0 1 996.027567 999.02439z" fill="#FDCA89" /><path d="M1065.709518 817.451707a8.241951 8.241951 0 0 1 8.241951 8.241952v69.681951A78.173659 78.173659 0 0 1 996.027567 974.04878H153.100738A78.173659 78.173659 0 0 1 74.927079 895.625366v-69.681951a8.241951 8.241951 0 0 1 8.241951-8.241952h982.540488m0-49.951219H83.16903A58.193171 58.193171 0 0 0 24.97586 825.943415v69.681951A128.124878 128.124878 0 0 0 153.100738 1024h842.926829A128.124878 128.124878 0 0 0 1123.902689 895.625366v-69.681951a58.193171 58.193171 0 0 0-58.193171-58.193171z" fill="#5C2D51" /><path d="M84.417811 607.406829h980.292683A59.441951 59.441951 0 0 1 1123.902689 666.599024v66.435122a59.192195 59.192195 0 0 1-59.192195 59.192195H84.417811A59.441951 59.441951 0 0 1 24.97586 733.034146v-66.435122a59.441951 59.441951 0 0 1 59.441951-59.192195z" fill="#9FDBAD" /><path d="M1064.710494 632.382439A34.466341 34.466341 0 0 1 1098.927079 666.599024v66.435122a34.466341 34.466341 0 0 1-34.216585 34.466342H84.417811A34.466341 34.466341 0 0 1 49.951469 733.034146v-66.435122a34.466341 34.466341 0 0 1 34.466342-34.216585h980.292683m0-49.951219H84.417811A84.167805 84.167805 0 0 0 0.00025 666.599024v66.435122a84.167805 84.167805 0 0 0 84.417561 84.417561h980.292683A84.167805 84.167805 0 0 0 1148.878299 733.034146v-66.435122a84.167805 84.167805 0 0 0-84.167805-84.167804z" fill="#5C2D51" /><path d="M74.927079 447.562927h999.02439v157.845853H74.927079z" fill="#F05071" /><path d="M1048.97586 472.538537v107.894634H99.902689v-107.894634h949.073171m49.951219-49.95122H49.951469v207.797073h1048.97561v-207.797073zM445.565128 190.813659h-49.95122a24.97561 24.97561 0 0 1 0-49.95122h49.95122a24.97561 24.97561 0 0 1 0 49.95122zM771.746591 190.813659h-49.951219a24.97561 24.97561 0 0 1 0-49.95122h49.951219a24.97561 24.97561 0 0 1 0 49.95122zM609.90464 342.165854h-49.951219a24.97561 24.97561 0 0 1 0-49.95122h49.951219a24.97561 24.97561 0 0 1 0 49.95122zM282.724152 342.165854h-49.951219a24.97561 24.97561 0 0 1 0-49.95122h49.951219a24.97561 24.97561 0 0 1 0 49.95122zM910.361225 359.64878h-49.951219a24.97561 24.97561 0 0 1 0-49.951219h49.951219a24.97561 24.97561 0 0 1 0 49.951219z" fill="#5C2D51" /></svg>