<svg viewBox="0 0 1600 1400" xmlns="http://www.w3.org/2000/svg"><rect fill="#fff" height="717.33" rx="20.42" width="988.03" x="452.87" y="172.82"/><path d="m1420.47 892.66h-947.18a23 23 0 0 1 -22.92-22.92v-676.49a23 23 0 0 1 22.92-22.92h947.18a23 23 0 0 1 22.92 22.92v676.49a23 23 0 0 1 -22.92 22.92zm-947.18-717.34a17.94 17.94 0 0 0 -17.92 17.92v676.5a17.94 17.94 0 0 0 17.92 17.92h947.18a17.94 17.94 0 0 0 17.92-17.92v-676.49a17.94 17.94 0 0 0 -17.92-17.92h-947.18z" fill="#262424"/><path d="m477.22 197.18h939.32v668.63h-939.32z" fill="#fff"/><path d="m1416.55 868.31h-939.33a2.5 2.5 0 0 1 -2.5-2.5v-668.63a2.5 2.5 0 0 1 2.5-2.5h939.32a2.5 2.5 0 0 1 2.5 2.5v668.63a2.5 2.5 0 0 1 -2.49 2.5zm-936.82-5h934.27v-663.63h-934.28v663.63z" fill="#262424"/><path d="m477.22 197.18h939.32v76.23h-939.32z" fill="#fff"/><path d="m1416.54 275.91h-939.32a2.5 2.5 0 0 1 -2.5-2.5v-76.23a2.5 2.5 0 0 1 2.5-2.5h939.32a2.5 2.5 0 0 1 2.5 2.5v76.23a2.5 2.5 0 0 1 -2.5 2.5zm-936.82-5h934.28v-71.23h-934.28z" fill="#262424"/><path d="m647.12 217.17a18.12 18.12 0 0 0 0 36.24h598.88a18.12 18.12 0 1 0 0-36.24z" fill="#87bfc1"/><path d="m522.15 248.83 17.77-28a4.61 4.61 0 0 1 7.79 0l17.77 28a4.61 4.61 0 0 1 -3.9 7.09h-35.53a4.61 4.61 0 0 1 -3.9-7.09z" fill="#dd9144"/><rect fill="#dd9144" height="13.28" rx="6" width="49.32" x="1337.83" y="216.32"/><rect fill="#dd9144" height="13.28" rx="6" width="49.32" x="1337.83" y="240.99"/><rect fill="#87bfc1" height="903.78" rx="13.09" width="586.02" x="653.87" y="301.75"/><rect fill="#dd9144" height="30.09" rx="13.59" width="280.45" x="901.09" y="400.11"/><rect fill="#dd9144" height="30.09" rx="13.59" width="280.45" x="901.09" y="479.62"/><rect fill="#fff" height="30.09" rx="13.59" width="219.18" x="722.89" y="928.02"/><rect fill="#fff" height="30.09" rx="13.59" width="219.18" x="722.89" y="1007.54"/><rect fill="#fff" height="30.09" rx="13.59" width="219.18" x="722.89" y="1087.05"/><path d="m831.86 526.91h-53.45l-13.14 31.55h-31.33l72.73-167.58h1.75l72.73 167.58h-36.8zm-10.52-26.73-15.55-39.18-16.21 39.21h31.76z" fill="#fff"/><rect fill="#fff" height="299.01" rx="10.66" width="458.64" x="722.89" y="590.49"/><rect fill="#dd9144" height="207.03" rx="12.61" width="204.95" x="976.58" y="926.84"/><path d="m989.44 941.16h179.23a.61.61 0 0 1 .61.61v177.16a.62.62 0 0 1 -.62.62h-179.22a.61.61 0 0 1 -.61-.61v-177.16a.62.62 0 0 1 .61-.62z" fill="#fff" transform="matrix(0 1 -1 0 2109.41 -48.7)"/><path d="m990.54 1120.59h177a.68.68 0 0 0 .68-.68v-31.91l-39.86-39.86a14.63 14.63 0 0 0 -20.7 0l-19.66 19.72-49.47-49.47a14.63 14.63 0 0 0 -20.7 0l-28 28v73.54a.68.68 0 0 0 .71.66z" fill="#dd9144"/><circle cx="1093.56" cy="1003.27" fill="#dd9144" r="20.44"/><path d="m233.82 1070.71-18.11 75.15 25.82 5.39 26.98-67.82z" fill="#fff"/><path d="m241.53 1153.75a2.48 2.48 0 0 1 -.51-.05l-25.82-5.4a2.5 2.5 0 0 1 -1.92-3l18.11-75.15a2.5 2.5 0 0 1 3.29-1.76l34.68 12.72a2.5 2.5 0 0 1 1.46 3.27l-27 67.82a2.5 2.5 0 0 1 -2.29 1.55zm-22.79-9.82 21.24 4.44 25.25-63.48-29.63-10.89z" fill="#262424"/><path d="m322.84 1216.38v10.79h-132.57s0-5.09.43-13.11c1-19.17 4.56-55.13 16.53-78.23h48.94s13 38.3 54.75 60.68a22.6 22.6 0 0 1 11.8 17.55 23 23 0 0 1 .12 2.32z" fill="#87bfc1"/><path d="m322.84 1216.38v10.79h-132.57s0-5.09.43-13.11h132a23 23 0 0 1 .14 2.32z" fill="#fff"/><path d="m322.84 1229.68h-132.57a2.5 2.5 0 0 1 -2.5-2.5c0-.21 0-5.25.44-13.24a2.5 2.5 0 0 1 2.5-2.37h132a2.5 2.5 0 0 1 2.49 2.25 25.56 25.56 0 0 1 .13 2.57v10.79a2.5 2.5 0 0 1 -2.49 2.5zm-130-5h127.5v-8.11h-127.26c-.16 3.43-.24 6.26-.27 8.11z" fill="#262424"/><path d="m343.82 949.87c-.42 3.21-4.73 14.67-10.85 29.83-17.16 42.58-48.62 114.36-48.62 114.36l-62.73-22.8 39.92-142.57s-36.66-114.06-40.74-145.83 10.6-81.46 10.6-81.46c26.07-75 83.91-62.73 92.05-22 6.6 33 16.93 181.75 19.76 243.75.67 14.61.92 24.4.61 26.72z" fill="#87bfc1"/><path d="m297.91 940a2.54 2.54 0 0 1 -.59-.07l-29.82-7.23a2.5 2.5 0 1 1 1.17-4.86l29.82 7.16a2.5 2.5 0 0 1 -.58 5z" fill="#262424"/><path d="m269 1073.78a2.5 2.5 0 0 1 -2.33-3.41l49.57-126.71-9.64-130.72a2.5 2.5 0 0 1 5-.37l9.68 131.29a2.5 2.5 0 0 1 -.17 1.09l-49.78 127.24a2.5 2.5 0 0 1 -2.33 1.59z" fill="#262424"/><path d="m237.43 742.45s-2.17 9.54-3.9 33.38a70.42 70.42 0 0 0 21.68 20.81s10-4.34 26.45-14.31l4.77-35.12s-32.52-6.49-49-4.76z" fill="#fff"/><path d="m343.82 949.87c-.42 3.21-4.73 14.67-10.85 29.83-7.22-5.65-12-15.11-12-25.83 0-15.22 9.55-27.91 22.19-30.72.72 14.61.97 24.4.66 26.72z" fill="#fff"/><path d="m223.42 1046.82 75.14 29.67-17.34 37-66.66-26.59z" fill="#fff"/><path d="m281.22 1116a2.49 2.49 0 0 1 -.93-.18l-66.67-26.59a2.5 2.5 0 0 1 -1.51-2.86l8.86-40.08a2.5 2.5 0 0 1 3.36-1.79l75.15 29.67a2.5 2.5 0 0 1 1.35 3.39l-17.34 37a2.5 2.5 0 0 1 -2.27 1.44zm-63.77-30.63 62.55 24.92 15.21-32.45-69.95-27.62z" fill="#262424"/><path d="m403 1072.15-8.06 76.88 26.3 1.95 17.82-70.78z" fill="#fff"/><path d="m421.24 1153.48h-.19l-26.31-2a2.5 2.5 0 0 1 -2.3-2.75l8.07-76.88a2.5 2.5 0 0 1 3-2.18l36.05 8a2.5 2.5 0 0 1 1.88 3.05l-17.82 70.78a2.5 2.5 0 0 1 -2.38 1.98zm-23.55-6.75 21.64 1.61 16.67-66.26-30.81-6.87z" fill="#262424"/><path d="m502.39 1216.38v10.79h-132.57s0-5.09.43-13.11c1-19.17 4.56-55.13 16.53-78.23h48.94s13 38.3 54.75 60.68a22.6 22.6 0 0 1 11.8 17.55 23 23 0 0 1 .12 2.32z" fill="#87bfc1"/><path d="m502.39 1216.38v10.79h-132.57s0-5.09.43-13.11h132a23 23 0 0 1 .14 2.32z" fill="#fff"/><path d="m502.39 1229.68h-132.57a2.5 2.5 0 0 1 -2.5-2.5c0-.21 0-5.25.44-13.24a2.5 2.5 0 0 1 2.5-2.37h132a2.5 2.5 0 0 1 2.49 2.25 25.56 25.56 0 0 1 .13 2.56v10.79a2.5 2.5 0 0 1 -2.49 2.51zm-130-5h127.5v-8.11h-127.26c-.17 3.43-.24 6.26-.28 8.11z" fill="#262424"/><path d="m479.58 942.1c.09 3.24-2.38 15.23-6 31.16-10.29 44.74-30.14 120.56-30.14 120.56l-65.53-12.71 17.09-147.11s-70.6-116.69-79.6-147.43-1.11-84.44-1.11-84.44c14-78.11 88.45-62.94 102.87-24 11.68 31.55 45.14 176.87 57.64 237.68 2.94 14.32 4.72 23.94 4.78 26.29z" fill="#87bfc1"/><path d="m333.33 828.34a2.5 2.5 0 0 1 -2.22-1.34c-9.79-18.75-15.88-32.12-18.11-39.73-9-30.91-1.51-83.29-1.18-85.5a2.5 2.5 0 0 1 4.95.73c-.08.53-7.7 53.52 1 83.37 2.14 7.3 8.1 20.36 17.74 38.82a2.5 2.5 0 0 1 -2.18 3.65z" fill="#262424"/><path d="m432.29 939.52h-.2l-30.58-2.44a2.5 2.5 0 0 1 .4-5l30.58 2.44a2.5 2.5 0 0 1 -.2 5z" fill="#262424"/><path d="m424.67 1076.21a2.55 2.55 0 0 1 -.54-.06 2.5 2.5 0 0 1 -1.91-3l29.14-132.9-52.09-213.5a2.5 2.5 0 0 1 4.86-1.19l52.22 214.06a2.5 2.5 0 0 1 0 1.13l-29.27 133.46a2.5 2.5 0 0 1 -2.41 2z" fill="#262424"/><path d="m412.25 771.9a2.5 2.5 0 0 1 -1.64-4.38l4.94-4.3a8 8 0 0 0 2.45-8.22l-6.67-22.93a2.5 2.5 0 0 1 4.8-1.4l6.67 22.93a13 13 0 0 1 -3.97 13.4l-4.94 4.3a2.49 2.49 0 0 1 -1.64.6z" fill="#262424"/><path d="m340.17 752.25s1.24 11.38 3.26 35.2a70.42 70.42 0 0 0 24.67 17.17s9.17-5.84 23.88-18.27l-.69-31.18s-29.5-6.17-51.12-2.92z" fill="#fff"/><path d="m479.58 942.1c.09 3.24-2.38 15.23-6 31.16-8-4.45-14.17-13.05-15.85-23.64-2.38-15 5.07-29.06 17.12-33.81 2.89 14.32 4.67 23.94 4.73 26.29z" fill="#fff"/><path d="m375.82 1056.68 78.86 17.56-11.35 39.25-70-15.84z" fill="#fff"/><path d="m443.34 1116a2.5 2.5 0 0 1 -.55-.06l-70-15.84a2.5 2.5 0 0 1 -1.94-2.59l2.49-41a2.5 2.5 0 0 1 3-2.29l78.86 17.56a2.5 2.5 0 0 1 1.86 3.13l-11.34 39.25a2.5 2.5 0 0 1 -2.38 1.84zm-67.34-20.32 65.63 14.85 10-34.43-73.4-16.34z" fill="#262424"/><path d="m312.08 509.43-45.38 12.73 15.48-40.77-33.37-3s-47.93 53.39-44.9 83.13 53.3 30 110.94 22.12-2.77-74.21-2.77-74.21z" fill="#fff"/><path d="m260.58 590.49c-23.81 0-39.91-3.71-49.43-11.19a24.84 24.84 0 0 1 -9.73-17.56c-3.11-30.48 43.54-82.83 45.53-85a2.5 2.5 0 0 1 2.09-.82l33.37 3a2.5 2.5 0 0 1 2.11 3.38l-13.72 36.12 40.61-11.42a2.5 2.5 0 0 1 2.52.72c1.45 1.59 35.36 39.17 27 62.23-3.18 8.78-11.84 14.2-25.74 16.1-21.46 2.95-39.57 4.44-54.61 4.44zm-10.73-109.49c-6.28 7.2-46.12 54.07-43.45 80.27a19.75 19.75 0 0 0 7.85 14.14c14.19 11.16 47 13 100.27 5.75 11.91-1.63 19.22-6 21.72-12.85 6.6-18.21-19.45-49.63-25-56l-43.87 12.31a2.5 2.5 0 0 1 -3-3.29l14.31-37.69z" fill="#262424"/><path d="m732.91 796.58 18.56 26.65-30.66-11c2.75-1.73 9.87-6.98 12.1-15.65z" fill="#262424"/><path d="m627.45 777.18 25.77-29 .13-.17 21.29-32.44 56.63 81.32c-2.1 7.18-7.74 11.76-10.66 13.72z" fill="#fff"/><path d="m720.61 813.08a2.52 2.52 0 0 1 -.84-.15l-93.16-33.4a2.5 2.5 0 0 1 -1-4l25.72-29 21.25-32.38a2.5 2.5 0 0 1 2.06-1.13 2.47 2.47 0 0 1 2.09 1.07l56.63 81.32a2.5 2.5 0 0 1 .35 2.13c-2.3 7.86-8.3 12.83-11.67 15.09a2.5 2.5 0 0 1 -1.43.45zm-88.83-37 88.46 31.71a23.6 23.6 0 0 0 8.28-10.52l-53.81-77.27-19.26 29.35a4 4 0 0 1 -.35.46z" fill="#262424"/><path d="m674.68 718.21 54.94 78.89c-2 5.94-6.67 10-9.24 11.79l-90.38-32.37 24.3-27.37a3 3 0 0 0 .26-.35l20.07-30.59m-.07-5.36-22.51 34.3-27.24 30.69 95.95 34.4c2.75-1.74 9.87-7 12.1-15.66l-58.3-83.72z" fill="#262424"/><path d="m281 410.82 391.16 299.49c6.77 5.19 6.9 17.16 1.38 30.19a76.29 76.29 0 0 1 -22.29 29.11c-11.14 8.73-22.73 11.73-29.5 6.54l-391.18-299.49c3.31 2.53 11.57-3.79 20.53-13.41a202.46 202.46 0 0 0 22.29-29.11c6.95-11.14 10.9-20.79 7.61-23.32z" fill="#87bfc1"/><path d="m647.36 769.12a2.49 2.49 0 0 1 -1.52-.51l-387.29-296.51a2.5 2.5 0 1 1 3-4l387.29 296.5a2.5 2.5 0 0 1 -1.48 4.52z" fill="#262424"/><path d="m670.54 740.69a2.49 2.49 0 0 1 -1.52-.51l-388.52-297.45a2.5 2.5 0 1 1 3-4l388.56 297.48a2.5 2.5 0 0 1 -1.52 4.48z" fill="#262424"/><path d="m246.55 384.46 34.45 26.36c9.51 7.28 5.93 27.92-8 46.1s-32.91 27-42.42 19.74l-34.44-26.36c9.51 7.28 28.5-1.56 42.42-19.74s17.5-38.82 7.99-46.1z" fill="#dd9144"/><path d="m212.13 358.11 34.42 26.35c9.51 7.28 5.93 27.92-8 46.1s-32.9 27-42.42 19.74l-34.42-26.35c9.51 7.28 28.5-1.56 42.42-19.74s17.5-38.83 8-46.1z" fill="#fff"/><path d="m204.35 455.36a15.66 15.66 0 0 1 -9.73-3.07l-34.42-26.36a2.5 2.5 0 0 1 3-4c3.82 2.93 9.85 2.71 17-.6 7.65-3.56 15.44-10.19 21.93-18.67 12.84-16.77 16.71-36.27 8.47-42.59a2.5 2.5 0 0 1 3-4l34.41 26.35c5.38 4.11 7.41 11.71 5.74 21.38-1.58 9.1-6.29 19.12-13.26 28.23-11.14 14.68-25.24 23.33-36.14 23.33zm-32.08-26.48 25.39 19.44c8.26 6.32 26.07-2.51 38.91-19.27 6.49-8.48 10.86-17.73 12.31-26 1.34-7.75 0-13.62-3.85-16.55l-25.39-19.5c1.67 10.45-3.11 25.12-13.52 38.72-7 9.11-15.42 16.27-23.79 20.16a32.34 32.34 0 0 1 -10.06 3z" fill="#262424"/><ellipse cx="186.92" cy="391.03" fill="#fff" rx="41.46" ry="21.68" transform="matrix(.6079303 -.7939904 .7939904 .6079303 -237.19 301.74)"/><path d="m169.9 429a15.61 15.61 0 0 1 -9.7-3.07c-5.37-4.11-7.41-11.7-5.73-21.37 1.58-9.1 6.28-19.12 13.26-28.23 15-19.58 35.16-28.46 45.93-20.21 10.77 8.24 7.46 30-7.53 49.61-7 9.11-15.42 16.27-23.79 20.16a29.88 29.88 0 0 1 -12.44 3.11zm34-71c-9.17 0-22.22 8.25-32.23 21.33-6.49 8.48-10.86 17.73-12.3 26-1.34 7.75 0 13.62 3.85 16.55s9.85 2.71 17-.6c7.65-3.56 15.44-10.19 21.93-18.67 12.84-16.77 16.71-36.28 8.46-42.6a10.76 10.76 0 0 0 -6.69-2.01z" fill="#262424"/><path d="m399.22 479.81c-30.21 3.9-117 33.74-117 33.74s-18.81 49.15 23.66 75.84c0 0 72.81-17.6 99.51-30.34s48.37-86.27-6.17-79.24z" fill="#dd9144"/><path d="m437.48 480.56 18.28-26.79 18.12 4.74-11.5 33.71z" fill="#fff"/><path d="m462.38 494.72a2.5 2.5 0 0 1 -1.06-.24l-24.9-11.66a2.5 2.5 0 0 1 -1-3.67l18.28-26.79a2.5 2.5 0 0 1 2.7-1l18.12 4.75a2.5 2.5 0 0 1 1.73 3.23l-11.5 33.66a2.5 2.5 0 0 1 -2.37 1.72zm-21.18-15.18 19.72 9.23 9.74-28.53-13.82-3.62z" fill="#262424"/><path d="m463.94 452.9c-.33 3.82 8.2 34.36 28.69 30.58s30.58-46.65 21.12-57.37-45.39-24.91-49.81 26.79z" fill="#fff"/><path d="m489.13 486.3a20.85 20.85 0 0 1 -14.27-5.89c-9.45-8.57-13.71-24.13-13.4-27.73l2.49.21-2.49-.21c2.26-26.49 12.72-35.35 21.1-38.11 12.87-4.25 27.34 3.38 33.07 9.88 6.35 7.19 4.72 23.55.52 35.71-5 14.6-13.45 24-23.06 25.77a21.75 21.75 0 0 1 -3.96.37zm-22.69-33.2c-.11 2.15 3.6 16.42 12.05 23.85 4.11 3.61 8.72 5 13.69 4.06 7.67-1.42 14.86-9.82 19.24-22.49s4.56-26.13.46-30.77c-5-5.71-17.49-11.82-27.75-8.44-9.97 3.3-16.13 14.98-17.7 33.8z" fill="#262424"/><path d="m452.28 454.79a35.77 35.77 0 0 0 18.6 8.2l8.2-6.93s-5-19.54 5-22.38 13.87 9.46 11 18.28 25.22 9.14 30.89-4.73-7.25-24.59-7.25-24.59-4.41-19.54-32.47-19.23-37.75 24.59-33.97 51.38z" fill="#262424"/><path d="m418.56 479.93s18-11.35 35.62-2.84 16.39 25.53 16.39 25.53z" fill="#fff"/><path d="m470.58 505.13a2.5 2.5 0 0 1 -1-.21l-52-22.7a2.5 2.5 0 0 1 -.33-4.41c.78-.49 19.35-12 38-3 19 9.15 17.85 27.21 17.8 28a2.5 2.5 0 0 1 -2.47 2.32zm-46.12-25.35 43.41 18.94c-.72-5-3.62-14-14.77-19.37s-22.52-2.16-28.64.42z" fill="#262424"/><path d="m223.25 706.29s103.46-4.07 217.51 48.88c0 0 4.07-78.21 5.7-105.91 0 0 40.73-21.18 44.81-27.7s-5.7-99.39-9.78-115.68-51.32-32.59-82.28-26.07-112.41 59.47-175.96 226.48z" fill="#dd9144"/><path d="m295 570.5a2.5 2.5 0 0 1 -2-4c41.76-58.19 83.05-84.41 105.72-89.18a2.5 2.5 0 1 1 1 4.89c-21.78 4.64-61.72 30.23-102.72 87.25a2.5 2.5 0 0 1 -2 1.04z" fill="#262424"/><path d="m434 744.4a2.49 2.49 0 0 1 -1.25-.34c-78.59-45.63-196.1-46.89-197.28-46.89a2.5 2.5 0 0 1 0-5c1.19 0 120 1.28 199.75 47.57a2.5 2.5 0 0 1 -1.22 4.66z" fill="#262424"/><path d="m451.48 408s-8.48-32.74-37.48-28.64-35.62 39.09-34 62.41-20.49 27.11-34.36 27.74-19.86 50.75 31.21 46.65 49.8-49.49 51.38-72.5 10.72-28.69 22.07-25.22 1.18-10.44 1.18-10.44z" fill="#262424"/><path d="m451.26 409.36-5.67 7.94a2.83 2.83 0 0 0 .6 3.91l6.19 4.66a2.83 2.83 0 0 0 4.07-.71l5.55-8.47a2.83 2.83 0 0 0 -.77-3.89l-6.07-4.13a2.83 2.83 0 0 0 -3.9.69z" fill="#fff"/><path d="m454.09 428.94a5.35 5.35 0 0 1 -3.21-1.07l-6.19-4.66a5.3 5.3 0 0 1 -1.13-7.36l5.67-7.94a5.36 5.36 0 0 1 7.34-1.31l6.07 4.13a5.36 5.36 0 0 1 1.46 7.33l-5.55 8.47a5.35 5.35 0 0 1 -3.54 2.33 5.27 5.27 0 0 1 -.92.08zm-.53-18.27a.33.33 0 0 0 -.27.14l-5.67 7.94a.33.33 0 0 0 .07.46l6.19 4.66a.33.33 0 0 0 .48-.08l5.55-8.47a.33.33 0 0 0 -.09-.46l-6.07-4.13a.33.33 0 0 0 -.18-.06z" fill="#262424"/><path d="m650.5 740.26a4.13 4.13 0 0 1 -4.77.6l-6.73-3.68c1.61 5.44 2.7 9.75 3 11.28.79 4.74 2.08 35.89-2.63 38s-13.45-25.46-13.45-25.46 2.1 17.83 0 19.41-31-10-34.63-14.69-8.91-26.76-8.91-30.42.87-26.46.87-26.46-66.61-34.06-72.91-39.84-48.26-71.34-64-105.44-7.43-84.67 28-68.57c32.1 14.58 82.13 135 82.13 135s61.59 64.75 68.7 73.44c1.45 1.77 25.56 31 25.56 31a4.13 4.13 0 0 1 -.23 5.83z" fill="#fff"/><path d="m638.78 789.06a4.21 4.21 0 0 1 -1.73-.38c-2.62-1.18-5.38-6-7.78-11.38-.33 4-1.3 4.74-1.85 5.15-.9.68-2.79 2.09-19.17-4.67-4.77-2-16.17-6.94-18.93-10.48-4-5.2-9.44-27.83-9.44-32 0-3.15.62-19.68.82-25-11.34-5.82-66-34-72-39.52-6.84-6.27-49.15-72.8-64.58-106.23-11.34-24.56-10.18-56.11 2.53-68.89 5-5.05 14.1-9.67 28.79-3 32 14.52 79.4 126.78 83.22 135.92 5.31 5.58 61.61 64.81 68.5 73.24 1.41 1.72 24.5 29.71 25.52 30.95a6.65 6.65 0 0 1 -.43 9.25 6.76 6.76 0 0 1 -7.64 1l-1.54-.84c.7 2.61 1.21 4.73 1.4 5.83a161.12 161.12 0 0 1 .78 20.44c-.31 16-2.52 19.2-4.86 20.24a3.8 3.8 0 0 1 -1.61.37zm-12.85-30.53a2.5 2.5 0 0 1 2.38 1.75c3.42 10.86 7.84 20.91 10.19 23.35 2.31-5 2-28.46 1-34.77-.23-1.37-1.29-5.59-2.89-11a2.5 2.5 0 0 1 3.59-2.9l6.74 3.67a1.69 1.69 0 0 0 1.88-.24 1.63 1.63 0 0 0 .09-2.27l-.08-.09c-.24-.29-24.13-29.25-25.57-31-7-8.52-68-72.65-68.57-73.3a2.5 2.5 0 0 1 -.5-.76c-.5-1.2-50-119.7-80.85-133.71-9.7-4.41-17.5-3.74-23.17 2-11.18 11.25-11.9 40.82-1.54 63.27 15.93 34.53 58 99.65 63.41 104.64 4.44 4.06 45.71 25.84 72.37 39.48a2.5 2.5 0 0 1 1.36 2.32c0 .23-.87 22.78-.87 26.36 0 3.23 5.17 24.75 8.39 28.88 2.61 3.36 24.88 12.73 30.94 13.78.39-2.86 0-10.37-.77-16.67a2.5 2.5 0 0 1 2.46-2.79z" fill="#262424"/><path d="m479.84 634.88s21.44 11.66 43.25-2.26 19.18-38.74 19.18-38.74-35-82.74-60.93-97.41-46.18-2.38-47.31 28.46c-1.48 40.66 45.81 109.95 45.81 109.95z" fill="#dd9144"/><g fill="#262424"><path d="m494.62 627.76a48.69 48.69 0 0 1 -14.24-2.06 2.5 2.5 0 0 1 1.62-4.7c.28.09 18.7 6 33.28-4.34 15.38-10.96 13.72-28.75 13.72-28.92a2.5 2.5 0 0 1 5-.52c.09.85 2 20.9-15.8 33.48a40.24 40.24 0 0 1 -23.58 7.06z"/><path d="m473.78 628a2.5 2.5 0 0 1 -2.12-1.17c-12.46-19.89-41.31-69.66-40.12-102 .45-12.39 3.93-22.37 10-28.87a2.5 2.5 0 1 1 3.64 3.43c-5.28 5.61-8.28 14.47-8.69 25.63-1.13 31 27.15 79.66 39.36 99.16a2.5 2.5 0 0 1 -2.07 3.82z"/><path d="m287.18 223.09a2.5 2.5 0 0 1 -2.5-2.5v-11.28a2.5 2.5 0 0 1 5 0v11.28a2.5 2.5 0 0 1 -2.5 2.5z"/><path d="m304.2 228.83h-11.29a2.5 2.5 0 0 1 0-5h11.29a2.5 2.5 0 0 1 0 5z"/><path d="m287.18 245.85a2.5 2.5 0 0 1 -2.5-2.5v-11.29a2.5 2.5 0 0 1 5 0v11.28a2.5 2.5 0 0 1 -2.5 2.51z"/><path d="m281.44 228.83h-11.28a2.5 2.5 0 0 1 0-5h11.28a2.5 2.5 0 0 1 0 5z"/><path d="m1343 1056.52a2.5 2.5 0 0 1 -2.5-2.5v-11.28a2.5 2.5 0 0 1 5 0v11.26a2.5 2.5 0 0 1 -2.5 2.52z"/><path d="m1360 1062.26h-11.3a2.5 2.5 0 1 1 0-5h11.3a2.5 2.5 0 0 1 0 5z"/><path d="m1343 1079.28a2.5 2.5 0 0 1 -2.5-2.5v-11.28a2.5 2.5 0 0 1 5 0v11.28a2.5 2.5 0 0 1 -2.5 2.5z"/><path d="m1337.23 1062.26h-11.28a2.5 2.5 0 1 1 0-5h11.28a2.5 2.5 0 0 1 0 5z"/></g><circle cx="309.21" cy="357.26" fill="#87bfc1" r="5.02"/><circle cx="1288.35" cy="987.54" fill="#dd9144" r="8.86"/></svg>